#!OML:ASF F:\VICON\USERDATA\INSTALL\Justin_Nancy\Justin_Nancy.ASF
:FULLY-SPECIFIED
:DEGREES
48
root 0.665562 16.1421 -6.95291 -11.2083 -1.31842 3.11983
lowerback 13.0918 -2.10523 -3.14187
upperback 1.49832 -3.13561 1.82645
thorax -5.48099 -1.45914 4.2476
lowerneck -19.4297 -1.97864 -9.33949
upperneck 19.0612 -0.408659 1.96859
head 9.25481 -0.661607 2.15564
rclavicle -2.02512e-014 -5.56597e-015
rhumerus -61.154 9.23075 -92.0777
rradius 126.918
rwrist -8.51897
rhand -12.3827 18.5146
rfingers 7.12502
rthumb 13.6881 -11.0152
lclavicle -2.02512e-014 -5.56597e-015
lhumerus -35.8542 -14.7782 89.1732
lradius 116.73
lwrist 26.4826
lhand -14.9819 5.16367
lfingers 7.12502
lthumb 11.1822 34.8457
rfemur -30.1168 6.78141 18.8819
rtibia 40.786
rfoot 4.09461 0.207844
rtoes -0.628775
lfemur -3.06466 -0.567318 -19.4649
ltibia 78.8745
lfoot -8.76338 1.69295
ltoes -22.8135
49
root 0.660416 16.1326 -6.58481 -11.7053 -1.398 1.90345
lowerback 13.7479 -2.06185 -2.15162
upperback 1.75744 -2.90726 2.43021
thorax -5.6082 -1.36261 4.31519
lowerneck -19.7103 -2.07273 -9.50939
upperneck 19.1026 -0.416017 1.79949
head 9.3229 -0.697601 2.12327
rclavicle -1.36913e-014 -1.59028e-015
rhumerus -59.3047 10.042 -91.4645
rradius 125.485
rwrist -8.96032
rhand -12.555 18.227
rfingers 7.12502
rthumb 13.5221 -11.314
lclavicle -1.36913e-014 -1.59028e-015
lhumerus -36.128 -13.8728 90.2499
lradius 114.363
lwrist 26.1209
lhand -14.7548 5.33531
lfingers 7.12502
lthumb 11.4012 35.0053
rfemur -29.9988 7.23736 20.4305
rtibia 44.321
rfoot 1.81143 -1.39075
rtoes -0.531524
lfemur -4.69871 -0.0625558 -17.4567
ltibia 80.6951
lfoot -10.0293 1.6587
ltoes -25.3973
50
root 0.669897 16.1143 -6.18545 -12.6859 -1.15764 2.22061
lowerback 14.3295 -1.93381 -2.65332
upperback 2.29848 -2.81673 2.54449
thorax -5.33147 -1.323 4.71733
lowerneck -20.1355 -2.22875 -9.5595
upperneck 18.9182 -0.530473 1.63101
head 9.34288 -0.767627 2.05436
rclavicle -2.26118e-014 3.26007e-014
rhumerus -57.0445 11.03 -90.8127
rradius 123.76
rwrist -9.74087
rhand -12.869 17.7027
rfingers 7.12502
rthumb 13.2195 -11.8582
lclavicle -2.26118e-014 3.26007e-014
lhumerus -36.0825 -12.8313 91.1182
lradius 111.556
lwrist 26.0833
lhand -15.1342 5.439
lfingers 7.12502
lthumb 11.0354 35.1289
rfemur -28.7269 6.48031 20.2814
rtibia 46.8664
rfoot -0.719776 -1.46272
rtoes 0.292649
lfemur -5.37406 0.146739 -17.7217
ltibia 81.7698
lfoot -10.6779 1.6058
ltoes -25.059
51
root 0.644376 16.0931 -5.86364 -12.3014 -1.70585 -0.216904
lowerback 14.5662 -1.92706 -0.762898
upperback 2.31291 -2.45653 3.52134
thorax -5.51889 -1.16874 4.63113
lowerneck -20.3148 -2.33089 -9.43247
upperneck 18.5671 -0.662434 1.49146
head 9.25898 -0.824881 1.96347
rclavicle -3.57937e-014 4.29375e-014
rhumerus -54.7385 12.0868 -90.1398
rradius 121.818
rwrist -10.7633
rhand -12.8048 16.9821
rfingers 7.12502
rthumb 13.2813 -12.5748
lclavicle -3.57937e-014 4.29375e-014
lhumerus -35.9506 -11.5939 91.89
lradius 108.293
lwrist 26.2159
lhand -15.9686 5.73783
lfingers 7.12502
lthumb 10.2304 35.4691
rfemur -28.7245 6.77882 23.3791
rtibia 48.4614
rfoot -2.1248 -2.58049
rtoes -0.782317
lfemur -8.4695 0.989894 -13.8664
ltibia 83.3027
lfoot -11.3939 -0.0214105
ltoes -23.2332
52
root 0.626111 16.0825 -5.49972 -12.426 -1.36313 -0.533663
lowerback 14.8332 -1.92137 -1.00335
upperback 2.31934 -2.4614 3.88511
thorax -5.63123 -1.16164 5.17393
lowerneck -20.0802 -2.31245 -9.31273
upperneck 18.2406 -0.653195 1.26159
head 9.10254 -0.828676 1.86352
rclavicle 2.97059e-014 -3.49861e-014
rhumerus -52.7244 13.2425 -89.3746
rradius 119.634
rwrist -11.6345
rhand -12.4597 16.9344
rfingers 7.12502
rthumb 13.614 -12.6004
lclavicle 2.97059e-014 -3.49861e-014
lhumerus -36.3359 -9.99093 92.7849
lradius 104.751
lwrist 26.2842
lhand -17.3085 5.399
lfingers 7.12502
lthumb 8.93767 35.1897
rfemur -28.0451 6.69854 23.9724
rtibia 50.209
rfoot -3.77834 -3.93975
rtoes -2.74933
lfemur -10.6087 1.16803 -13.1918
ltibia 84.0426
lfoot -11.9516 -0.666008
ltoes -21.0494
53
root 0.618744 16.0503 -5.15593 -12.4286 -0.963192 -0.436526
lowerback 15.1785 -1.90209 -1.48933
upperback 2.1368 -2.49395 4.07788
thorax -5.98204 -1.1546 5.69406
lowerneck -19.589 -2.27875 -9.2854
upperneck 18.0093 -0.645861 1.13269
head 8.93526 -0.831279 1.81529
rclavicle 1.49337e-014 -1.90833e-014
rhumerus -50.5982 14.3435 -88.666
rradius 116.922
rwrist -11.8831
rhand -12.2751 17.6952
rfingers 7.12502
rthumb 13.7919 -11.8276
lclavicle 1.49337e-014 -1.90833e-014
lhumerus -37.0159 -8.31641 93.5948
lradius 101.189
lwrist 26.4771
lhand -18.5238 4.72794
lfingers 7.12502
lthumb 7.76484 34.5654
rfemur -27.6331 6.85374 24.0014
rtibia 51.9414
rfoot -5.39547 -5.13947
rtoes -3.12485
lfemur -13.0489 1.4597 -13.1848
ltibia 84.6999
lfoot -12.3136 -1.15375
ltoes -20.6448
54
root 0.625357 16.0205 -4.81631 -12.2223 -0.271338 0.583
lowerback 15.136 -1.92402 -2.73544
upperback 1.9126 -2.73112 3.97192
thorax -6.1184 -1.23622 6.3486
lowerneck -19.1003 -2.17355 -9.30173
upperneck 17.968 -0.53194 1.03834
head 8.82893 -0.788566 1.80161
rclavicle -1.34428e-014 -7.95139e-015
rhumerus -48.0687 15.6072 -88.0321
rradius 113.806
rwrist -11.6529
rhand -12.4581 18.0904
rfingers 7.12502
rthumb 13.6155 -11.4443
lclavicle -1.34428e-014 -7.95139e-015
lhumerus -37.5798 -6.52306 94.1845
lradius 97.4995
lwrist 26.6318
lhand -18.9775 4.24654
lfingers 7.12502
lthumb 7.32684 34.0997
rfemur -27.4565 6.57947 22.8236
rtibia 53.7285
rfoot -7.41112 -5.92668
rtoes -3.83194
lfemur -15.7273 1.32875 -14.7023
ltibia 84.9203
lfoot -11.7745 -1.29535
ltoes -19.2772
55
root 0.625028 16.0127 -4.46094 -12.156 -0.0210908 1.00212
lowerback 14.8688 -1.84993 -3.29508
upperback 1.89692 -2.72224 3.96216
thorax -5.96285 -1.22453 6.64289
lowerneck -18.8751 -2.12212 -9.17455
upperneck 18.1514 -0.502678 0.959439
head 8.8499 -0.780349 1.75964
rclavicle 7.85199e-015 -1.59028e-014
rhumerus -45.2637 16.5765 -87.4788
rradius 110.626
rwrist -11.2249
rhand -12.8124 18.442
rfingers 7.12502
rthumb 13.274 -11.1153
lclavicle 7.85199e-015 -1.59028e-014
lhumerus -37.9294 -4.98708 94.5091
lradius 94.0435
lwrist 25.8345
lhand -18.4 4.00001
lfingers 7.12502
lthumb 7.88424 33.833
rfemur -26.7893 6.51713 22.4977
rtibia 55.2906
rfoot -9.39922 -6.9266
rtoes -4.74807
lfemur -18.0149 1.35053 -15.398
ltibia 84.7718
lfoot -11.3791 -1.4994
ltoes -16.01
56
root 0.616144 16.0081 -4.11705 -12.0992 -0.176735 0.734991
lowerback 14.7128 -1.6556 -3.14689
upperback 1.92064 -2.43157 4.06739
thorax -5.89273 -1.08676 6.60741
lowerneck -18.9103 -2.22339 -8.9773
upperneck 18.5615 -0.702401 1.02412
head 9.00648 -0.864951 1.72632
rclavicle -3.41413e-014 -2.22639e-014
rhumerus -42.6468 16.9889 -87.0705
rradius 107.925
rwrist -10.5916
rhand -13.0508 19.5982
rfingers 7.12502
rthumb 13.0442 -9.97389
lclavicle -3.41413e-014 -2.22639e-014
lhumerus -38.3907 -3.97414 94.7173
lradius 91.08
lwrist 25.2644
lhand -18.6124 4.12278
lfingers 7.12502
lthumb 7.67929 33.9634
rfemur -26.0619 6.80024 23.1398
rtibia 56.6069
rfoot -11.0733 -8.07924
rtoes -5.11528
lfemur -20.1401 1.80775 -15.0916
ltibia 84.323
lfoot -11.7086 -1.70855
ltoes -13.6241
57
root 0.627496 15.9927 -3.80306 -11.8472 -0.0874489 1.33331
lowerback 14.7002 -1.41681 -3.58924
upperback 1.80123 -2.19699 3.85644
thorax -6.03635 -0.955251 6.59409
lowerneck -18.7196 -2.4099 -8.95823
upperneck 18.6816 -1.04401 1.29097
head 9.03166 -0.997153 1.77165
rclavicle -3.47873e-014 1.11319e-014
rhumerus -40.8378 16.9485 -86.9022
rradius 106.186
rwrist -9.88894
rhand -13.1554 19.8871
rfingers 7.12502
rthumb 12.9434 -9.69142
lclavicle -3.47873e-014 1.11319e-014
lhumerus -39.1974 -3.16828 94.8491
lradius 88.7781
lwrist 24.5673
lhand -19.0536 6.7432
lfingers 7.12502
lthumb 7.25338 36.5989
rfemur -25.6969 6.75281 22.5954
rtibia 57.7194
rfoot -12.7485 -8.52078
rtoes -4.82784
lfemur -22.3562 2.04147 -16.1512
ltibia 83.506
lfoot -11.9943 -1.0582
ltoes -13.0121
